<svg width="259" height="98" viewBox="0 0 259 98" fill="none" xmlns="http://www.w3.org/2000/svg">
<g filter="url(#filter0_di_1112_943)">
<path d="M26.6916 62.3808C13.5177 63.0564 13.3207 48.0246 14.8689 40.4243C-5.39863 61.9586 7.69078 91.0932 34.7142 92.7821C56.3329 94.1333 62.0191 77.3 62.1598 68.7144C62.1598 52.247 46.5372 28.4816 44.4257 21.8457C41.47 12.5564 45.6925 6.36352 47.8037 4.95605C24.8338 12.0497 29.5066 33.2462 34.7142 42.9577C37.5291 49.1506 39.8656 61.7052 26.6916 62.3808Z" fill="white"/>
<path d="M26.6916 62.3808C13.5177 63.0564 13.3207 48.0246 14.8689 40.4243C-5.39863 61.9586 7.69078 91.0932 34.7142 92.7821C56.3329 94.1333 62.0191 77.3 62.1598 68.7144C62.1598 52.247 46.5372 28.4816 44.4257 21.8457C41.47 12.5564 45.6925 6.36352 47.8037 4.95605C24.8338 12.0497 29.5066 33.2462 34.7142 42.9577C37.5291 49.1506 39.8656 61.7052 26.6916 62.3808Z" stroke="white" stroke-width="0.844482"/>
</g>
<path d="M91.6988 76.9341L98.4883 26.906H105.028L117.749 50.848L130.399 26.906H136.974L143.728 76.9341H135.581L130.649 37.4834L132.722 37.8765L117.821 65.642L102.705 37.9122L104.778 37.5191L99.8462 76.9341H91.6988ZM158.874 77.6488C156.825 77.6488 155.003 77.22 153.407 76.3623C151.811 75.4809 150.548 74.2659 149.619 72.7174C148.714 71.1689 148.261 69.3465 148.261 67.2501C148.261 65.249 148.714 63.5456 149.619 62.1401C150.524 60.7107 151.727 59.5196 153.228 58.5666C154.729 57.6137 156.373 56.8633 158.16 56.3154C159.97 55.7436 161.804 55.3267 163.663 55.0647C165.521 54.8026 167.248 54.6597 168.844 54.6359C168.82 51.8486 168.225 49.9666 167.057 48.9898C165.89 47.9893 164.115 47.489 161.733 47.489C160.304 47.489 158.839 47.7034 157.338 48.1322C155.837 48.5372 154.145 49.3115 152.263 50.455L151.406 44.3801C153.121 43.3319 155.039 42.4981 157.159 41.8787C159.279 41.2593 161.471 40.9496 163.734 40.9496C166.569 40.9496 168.916 41.4499 170.774 42.4505C172.632 43.451 174.026 45.1067 174.955 47.4175C175.884 49.7284 176.348 52.8253 176.348 56.7085V64.9274C176.348 66.6426 176.42 67.9886 176.563 68.9653C176.73 69.9182 177.075 70.5972 177.599 71.0022C178.123 71.4072 178.921 71.6097 179.993 71.6097H180.851L179.922 77.6488H178.278C176.515 77.6488 175.086 77.4582 173.99 77.077C172.918 76.6959 172.048 76.1598 171.381 75.469C170.714 74.7543 170.154 73.9086 169.702 72.9318C168.439 74.3612 166.867 75.5047 164.985 76.3623C163.127 77.22 161.09 77.6488 158.874 77.6488ZM161.161 71.7883C162.495 71.7883 163.865 71.4548 165.271 70.7878C166.7 70.1207 167.903 69.1916 168.88 68.0005V59.7101C166.212 59.8293 163.913 60.1509 161.983 60.675C160.077 61.1752 158.6 61.9376 157.552 62.962C156.528 63.9863 156.016 65.2966 156.016 66.8927C156.016 68.608 156.468 69.8587 157.373 70.6448C158.279 71.4072 159.541 71.7883 161.161 71.7883ZM194.809 77.6488C192.617 77.6488 190.854 77.2319 189.52 76.3981C188.186 75.5643 187.21 74.4803 186.59 73.1462C185.995 71.7883 185.697 70.3471 185.697 68.8224V23.3326H193.165V65.1418C193.165 67.0952 193.284 68.5365 193.523 69.4656C193.785 70.3709 194.273 70.9545 194.988 71.2166C195.726 71.4786 196.81 71.6097 198.24 71.6097L197.382 77.6488H194.809ZM214.941 77.6488C212.725 77.6488 210.927 77.22 209.545 76.3623C208.187 75.5047 207.186 74.4089 206.543 73.0748C205.924 71.7407 205.614 70.3351 205.614 68.8581V47.5962H200.004L200.683 41.6286H205.614V33.3025L213.083 32.5163V41.6286H221.73V47.5962H213.083V65.0703C213.083 67.1191 213.202 68.608 213.44 69.5371C213.678 70.4423 214.262 71.0141 215.191 71.2523C216.12 71.4906 217.597 71.6097 219.622 71.6097H221.623L220.98 77.6488H214.941ZM235.298 77.6488C233.249 77.6488 231.427 77.22 229.831 76.3623C228.235 75.4809 226.972 74.2659 226.043 72.7174C225.138 71.1689 224.685 69.3465 224.685 67.2501C224.685 65.249 225.138 63.5456 226.043 62.1401C226.948 60.7107 228.151 59.5196 229.652 58.5666C231.153 57.6137 232.797 56.8633 234.584 56.3154C236.394 55.7436 238.228 55.3267 240.087 55.0647C241.945 54.8026 243.672 54.6597 245.268 54.6359C245.244 51.8486 244.649 49.9666 243.481 48.9898C242.314 47.9893 240.539 47.489 238.157 47.489C236.728 47.489 235.263 47.7034 233.762 48.1322C232.261 48.5372 230.569 49.3115 228.687 50.455L227.83 44.3801C229.545 43.3319 231.463 42.4981 233.583 41.8787C235.703 41.2593 237.895 40.9496 240.158 40.9496C242.993 40.9496 245.34 41.4499 247.198 42.4505C249.056 43.451 250.45 45.1067 251.379 47.4175C252.308 49.7284 252.772 52.8253 252.772 56.7085V64.9274C252.772 66.6426 252.844 67.9886 252.987 68.9653C253.153 69.9182 253.499 70.5972 254.023 71.0022C254.547 71.4072 255.345 71.6097 256.417 71.6097H257.275L256.346 77.6488H254.702C252.939 77.6488 251.51 77.4582 250.414 77.077C249.342 76.6959 248.472 76.1598 247.805 75.469C247.138 74.7543 246.578 73.9086 246.126 72.9318C244.863 74.3612 243.291 75.5047 241.409 76.3623C239.551 77.22 237.514 77.6488 235.298 77.6488ZM237.585 71.7883C238.919 71.7883 240.289 71.4548 241.695 70.7878C243.124 70.1207 244.327 69.1916 245.304 68.0005V59.7101C242.636 59.8293 240.337 60.1509 238.407 60.675C236.501 61.1752 235.024 61.9376 233.976 62.962C232.952 63.9863 232.439 65.2966 232.439 66.8927C232.439 68.608 232.892 69.8587 233.797 70.6448C234.703 71.4072 235.965 71.7883 237.585 71.7883Z" fill="white"/>
<defs>
<filter id="filter0_di_1112_943" x="0.509984" y="0.485082" width="66.1397" height="96.8638" filterUnits="userSpaceOnUse" color-interpolation-filters="sRGB">
<feFlood flood-opacity="0" result="BackgroundImageFix"/>
<feColorMatrix in="SourceAlpha" type="matrix" values="0 0 0 0 0 0 0 0 0 0 0 0 0 0 0 0 0 0 127 0" result="hardAlpha"/>
<feOffset/>
<feGaussianBlur stdDeviation="2.03383"/>
<feComposite in2="hardAlpha" operator="out"/>
<feColorMatrix type="matrix" values="0 0 0 0 0.941176 0 0 0 0 0.466667 0 0 0 0 0.219608 0 0 0 0.35 0"/>
<feBlend mode="normal" in2="BackgroundImageFix" result="effect1_dropShadow_1112_943"/>
<feBlend mode="normal" in="SourceGraphic" in2="effect1_dropShadow_1112_943" result="shape"/>
<feColorMatrix in="SourceAlpha" type="matrix" values="0 0 0 0 0 0 0 0 0 0 0 0 0 0 0 0 0 0 127 0" result="hardAlpha"/>
<feOffset dy="2.71177"/>
<feGaussianBlur stdDeviation="1.35588"/>
<feComposite in2="hardAlpha" operator="arithmetic" k2="-1" k3="1"/>
<feColorMatrix type="matrix" values="0 0 0 0 0 0 0 0 0 0 0 0 0 0 0 0 0 0 0.14 0"/>
<feBlend mode="normal" in2="shape" result="effect2_innerShadow_1112_943"/>
</filter>
</defs>
</svg>
